<mxfile host="app.diagrams.net" modified="2024-02-12T14:44:11.746Z" agent="Mozilla/5.0 (Windows NT 10.0; Win64; x64) AppleWebKit/537.36 (KHTML, like Gecko) Chrome/121.0.0.0 Safari/537.36 Edg/121.0.0.0" etag="ZsUm5GHn88JJ1jyIhMre" version="23.1.2" type="github" pages="4">
  <diagram id="SMLNBqxtuEnPJgKzAntV" name="Page-1">
    <mxGraphModel dx="1174" dy="819" grid="1" gridSize="10" guides="1" tooltips="1" connect="1" arrows="1" fold="1" page="1" pageScale="1" pageWidth="2339" pageHeight="3300" math="0" shadow="0">
      <root>
        <mxCell id="0" />
        <mxCell id="1" parent="0" />
        <mxCell id="qljLDfotRCCgLCwqGysa-10" style="edgeStyle=orthogonalEdgeStyle;rounded=0;orthogonalLoop=1;jettySize=auto;html=1;entryX=0;entryY=0.5;entryDx=0;entryDy=0;" parent="1" source="qljLDfotRCCgLCwqGysa-1" target="qljLDfotRCCgLCwqGysa-2" edge="1">
          <mxGeometry relative="1" as="geometry" />
        </mxCell>
        <mxCell id="qljLDfotRCCgLCwqGysa-1" value="&lt;font style=&quot;font-size: 18px;&quot;&gt;Bit Stream Generation&lt;/font&gt;" style="rounded=0;whiteSpace=wrap;html=1;fontSize=18;" parent="1" vertex="1">
          <mxGeometry x="241" y="240" width="120" height="60" as="geometry" />
        </mxCell>
        <mxCell id="qljLDfotRCCgLCwqGysa-11" style="edgeStyle=orthogonalEdgeStyle;rounded=0;orthogonalLoop=1;jettySize=auto;html=1;entryX=0;entryY=0.5;entryDx=0;entryDy=0;" parent="1" source="qljLDfotRCCgLCwqGysa-2" target="qljLDfotRCCgLCwqGysa-4" edge="1">
          <mxGeometry relative="1" as="geometry" />
        </mxCell>
        <mxCell id="qljLDfotRCCgLCwqGysa-2" value="&lt;span style=&quot;font-size: 18px;&quot;&gt;Data Encoding&lt;/span&gt;" style="rounded=0;whiteSpace=wrap;html=1;fontSize=18;" parent="1" vertex="1">
          <mxGeometry x="421" y="240" width="120" height="60" as="geometry" />
        </mxCell>
        <mxCell id="qljLDfotRCCgLCwqGysa-16" style="edgeStyle=orthogonalEdgeStyle;rounded=0;orthogonalLoop=1;jettySize=auto;html=1;exitX=0.5;exitY=1;exitDx=0;exitDy=0;entryX=0.5;entryY=0;entryDx=0;entryDy=0;fontSize=14;" parent="1" source="qljLDfotRCCgLCwqGysa-3" target="qljLDfotRCCgLCwqGysa-7" edge="1">
          <mxGeometry relative="1" as="geometry" />
        </mxCell>
        <mxCell id="qljLDfotRCCgLCwqGysa-3" value="&lt;span style=&quot;font-size: 18px;&quot;&gt;Modulation and Channel Coding&lt;/span&gt;" style="rounded=0;whiteSpace=wrap;html=1;fontSize=18;" parent="1" vertex="1">
          <mxGeometry x="981.5" y="235" width="139" height="70" as="geometry" />
        </mxCell>
        <mxCell id="qljLDfotRCCgLCwqGysa-12" style="edgeStyle=orthogonalEdgeStyle;rounded=0;orthogonalLoop=1;jettySize=auto;html=1;entryX=0;entryY=0.5;entryDx=0;entryDy=0;" parent="1" source="qljLDfotRCCgLCwqGysa-4" target="qljLDfotRCCgLCwqGysa-5" edge="1">
          <mxGeometry relative="1" as="geometry" />
        </mxCell>
        <mxCell id="qljLDfotRCCgLCwqGysa-4" value="&lt;span style=&quot;font-size: 18px;&quot;&gt;Power Allocation&lt;/span&gt;" style="rounded=0;whiteSpace=wrap;html=1;fontSize=18;" parent="1" vertex="1">
          <mxGeometry x="611" y="240" width="120" height="60" as="geometry" />
        </mxCell>
        <mxCell id="qljLDfotRCCgLCwqGysa-15" style="edgeStyle=orthogonalEdgeStyle;rounded=0;orthogonalLoop=1;jettySize=auto;html=1;entryX=0;entryY=0.5;entryDx=0;entryDy=0;fontSize=14;" parent="1" source="qljLDfotRCCgLCwqGysa-5" target="qljLDfotRCCgLCwqGysa-3" edge="1">
          <mxGeometry relative="1" as="geometry" />
        </mxCell>
        <mxCell id="qljLDfotRCCgLCwqGysa-5" value="&lt;span style=&quot;font-size: 18px;&quot;&gt;Signal Superposition&lt;/span&gt;" style="rounded=0;whiteSpace=wrap;html=1;fontSize=18;" parent="1" vertex="1">
          <mxGeometry x="801" y="240" width="120" height="60" as="geometry" />
        </mxCell>
        <mxCell id="qljLDfotRCCgLCwqGysa-22" style="edgeStyle=orthogonalEdgeStyle;rounded=0;orthogonalLoop=1;jettySize=auto;html=1;entryX=1;entryY=0.5;entryDx=0;entryDy=0;fontSize=14;" parent="1" source="qljLDfotRCCgLCwqGysa-7" target="qljLDfotRCCgLCwqGysa-21" edge="1">
          <mxGeometry relative="1" as="geometry" />
        </mxCell>
        <mxCell id="qljLDfotRCCgLCwqGysa-7" value="&lt;span style=&quot;font-size: 18px;&quot;&gt;Transmission&lt;/span&gt;" style="rounded=0;whiteSpace=wrap;html=1;fontSize=18;" parent="1" vertex="1">
          <mxGeometry x="991" y="450" width="120" height="60" as="geometry" />
        </mxCell>
        <mxCell id="qljLDfotRCCgLCwqGysa-17" value="" style="endArrow=none;dashed=1;html=1;dashPattern=1 3;strokeWidth=2;rounded=0;fontSize=14;" parent="1" edge="1">
          <mxGeometry width="50" height="50" relative="1" as="geometry">
            <mxPoint x="210" y="340" as="sourcePoint" />
            <mxPoint x="1145" y="340" as="targetPoint" />
          </mxGeometry>
        </mxCell>
        <mxCell id="qljLDfotRCCgLCwqGysa-18" value="" style="endArrow=none;dashed=1;html=1;dashPattern=1 3;strokeWidth=2;rounded=0;fontSize=14;" parent="1" source="qljLDfotRCCgLCwqGysa-67" edge="1">
          <mxGeometry width="50" height="50" relative="1" as="geometry">
            <mxPoint x="210" y="200" as="sourcePoint" />
            <mxPoint x="1140" y="200" as="targetPoint" />
          </mxGeometry>
        </mxCell>
        <mxCell id="qljLDfotRCCgLCwqGysa-19" value="" style="endArrow=none;dashed=1;html=1;dashPattern=1 3;strokeWidth=2;rounded=0;fontSize=14;" parent="1" edge="1">
          <mxGeometry width="50" height="50" relative="1" as="geometry">
            <mxPoint x="1140" y="340" as="sourcePoint" />
            <mxPoint x="1140" y="200" as="targetPoint" />
          </mxGeometry>
        </mxCell>
        <mxCell id="qljLDfotRCCgLCwqGysa-20" value="" style="endArrow=none;dashed=1;html=1;dashPattern=1 3;strokeWidth=2;rounded=0;fontSize=14;" parent="1" edge="1">
          <mxGeometry width="50" height="50" relative="1" as="geometry">
            <mxPoint x="211" y="340" as="sourcePoint" />
            <mxPoint x="211" y="200" as="targetPoint" />
          </mxGeometry>
        </mxCell>
        <mxCell id="qljLDfotRCCgLCwqGysa-44" style="edgeStyle=orthogonalEdgeStyle;rounded=0;orthogonalLoop=1;jettySize=auto;html=1;exitX=0.5;exitY=1;exitDx=0;exitDy=0;entryX=0.5;entryY=0;entryDx=0;entryDy=0;fontSize=14;" parent="1" source="qljLDfotRCCgLCwqGysa-21" target="qljLDfotRCCgLCwqGysa-39" edge="1">
          <mxGeometry relative="1" as="geometry">
            <Array as="points">
              <mxPoint x="801.5" y="510" />
              <mxPoint x="801.5" y="540" />
              <mxPoint x="771.5" y="540" />
            </Array>
          </mxGeometry>
        </mxCell>
        <mxCell id="qljLDfotRCCgLCwqGysa-45" style="edgeStyle=orthogonalEdgeStyle;rounded=0;orthogonalLoop=1;jettySize=auto;html=1;exitX=0.75;exitY=1;exitDx=0;exitDy=0;entryX=0.5;entryY=0;entryDx=0;entryDy=0;fontSize=14;" parent="1" source="qljLDfotRCCgLCwqGysa-21" target="qljLDfotRCCgLCwqGysa-40" edge="1">
          <mxGeometry relative="1" as="geometry" />
        </mxCell>
        <mxCell id="qljLDfotRCCgLCwqGysa-21" value="&lt;span style=&quot;font-size: 18px;&quot;&gt;SIC&lt;/span&gt;" style="rounded=0;whiteSpace=wrap;html=1;fontSize=18;" parent="1" vertex="1">
          <mxGeometry x="761.5" y="450" width="120" height="60" as="geometry" />
        </mxCell>
        <mxCell id="qljLDfotRCCgLCwqGysa-23" value="&lt;span style=&quot;font-size: 18px;&quot;&gt;Demodulation&lt;/span&gt;" style="rounded=0;whiteSpace=wrap;html=1;fontSize=18;" parent="1" vertex="1">
          <mxGeometry x="441.5" y="450" width="128.5" height="60" as="geometry" />
        </mxCell>
        <mxCell id="qljLDfotRCCgLCwqGysa-39" value="NU" style="whiteSpace=wrap;html=1;aspect=fixed;fontSize=18;" parent="1" vertex="1">
          <mxGeometry x="741.5" y="570" width="60" height="60" as="geometry" />
        </mxCell>
        <mxCell id="qljLDfotRCCgLCwqGysa-40" value="FU" style="whiteSpace=wrap;html=1;aspect=fixed;fontSize=18;" parent="1" vertex="1">
          <mxGeometry x="850" y="571" width="60" height="60" as="geometry" />
        </mxCell>
        <mxCell id="qljLDfotRCCgLCwqGysa-47" value="Career Wave Generation" style="text;html=1;strokeColor=none;fillColor=none;align=left;verticalAlign=middle;whiteSpace=wrap;rounded=0;fontSize=18;" parent="1" vertex="1">
          <mxGeometry x="495.5" y="540" width="224.5" height="30" as="geometry" />
        </mxCell>
        <mxCell id="qljLDfotRCCgLCwqGysa-48" value="&lt;span style=&quot;color: rgb(0, 0, 0); font-family: Helvetica; font-size: 18px; font-style: normal; font-variant-ligatures: normal; font-variant-caps: normal; font-weight: 400; letter-spacing: normal; orphans: 2; text-align: center; text-indent: 0px; text-transform: none; widows: 2; word-spacing: 0px; -webkit-text-stroke-width: 0px; background-color: rgb(248, 249, 250); text-decoration-thickness: initial; text-decoration-style: initial; text-decoration-color: initial; float: none; display: inline !important;&quot;&gt;Mixing&lt;/span&gt;" style="text;whiteSpace=wrap;html=1;fontSize=18;" parent="1" vertex="1">
          <mxGeometry x="495.5" y="581" width="190" height="40" as="geometry" />
        </mxCell>
        <mxCell id="qljLDfotRCCgLCwqGysa-49" value="&lt;span style=&quot;color: rgb(0, 0, 0); font-family: Helvetica; font-size: 18px; font-style: normal; font-variant-ligatures: normal; font-variant-caps: normal; font-weight: 400; letter-spacing: normal; orphans: 2; text-align: center; text-indent: 0px; text-transform: none; widows: 2; word-spacing: 0px; -webkit-text-stroke-width: 0px; background-color: rgb(248, 249, 250); text-decoration-thickness: initial; text-decoration-style: initial; text-decoration-color: initial; float: none; display: inline !important;&quot;&gt;Low pass filtering&lt;/span&gt;" style="text;whiteSpace=wrap;html=1;fontSize=18;" parent="1" vertex="1">
          <mxGeometry x="497.5" y="620" width="190" height="40" as="geometry" />
        </mxCell>
        <mxCell id="qljLDfotRCCgLCwqGysa-52" value="" style="endArrow=none;html=1;rounded=0;fontSize=14;" parent="1" edge="1">
          <mxGeometry width="50" height="50" relative="1" as="geometry">
            <mxPoint x="461.5" y="640" as="sourcePoint" />
            <mxPoint x="461.5" y="510" as="targetPoint" />
          </mxGeometry>
        </mxCell>
        <mxCell id="qljLDfotRCCgLCwqGysa-54" value="" style="endArrow=none;html=1;rounded=0;fontSize=14;" parent="1" edge="1">
          <mxGeometry width="50" height="50" relative="1" as="geometry">
            <mxPoint x="461.5" y="554.5" as="sourcePoint" />
            <mxPoint x="487.5" y="554.5" as="targetPoint" />
          </mxGeometry>
        </mxCell>
        <mxCell id="qljLDfotRCCgLCwqGysa-55" value="" style="endArrow=none;html=1;rounded=0;fontSize=14;" parent="1" edge="1">
          <mxGeometry width="50" height="50" relative="1" as="geometry">
            <mxPoint x="461.5" y="639.5" as="sourcePoint" />
            <mxPoint x="487.5" y="639.5" as="targetPoint" />
          </mxGeometry>
        </mxCell>
        <mxCell id="qljLDfotRCCgLCwqGysa-58" value="" style="endArrow=none;html=1;rounded=0;fontSize=14;" parent="1" edge="1">
          <mxGeometry width="50" height="50" relative="1" as="geometry">
            <mxPoint x="461.5" y="596" as="sourcePoint" />
            <mxPoint x="487.5" y="596" as="targetPoint" />
          </mxGeometry>
        </mxCell>
        <mxCell id="qljLDfotRCCgLCwqGysa-61" value="" style="endArrow=none;dashed=1;html=1;dashPattern=1 3;strokeWidth=2;rounded=0;fontSize=14;" parent="1" edge="1">
          <mxGeometry width="50" height="50" relative="1" as="geometry">
            <mxPoint x="241.5" y="690" as="sourcePoint" />
            <mxPoint x="940.5" y="690" as="targetPoint" />
          </mxGeometry>
        </mxCell>
        <mxCell id="qljLDfotRCCgLCwqGysa-62" value="" style="endArrow=none;dashed=1;html=1;dashPattern=1 3;strokeWidth=2;rounded=0;fontSize=14;" parent="1" source="qljLDfotRCCgLCwqGysa-66" edge="1">
          <mxGeometry width="50" height="50" relative="1" as="geometry">
            <mxPoint x="241" y="420" as="sourcePoint" />
            <mxPoint x="940" y="420" as="targetPoint" />
          </mxGeometry>
        </mxCell>
        <mxCell id="qljLDfotRCCgLCwqGysa-63" value="" style="endArrow=none;dashed=1;html=1;dashPattern=1 3;strokeWidth=2;rounded=0;fontSize=14;" parent="1" edge="1">
          <mxGeometry width="50" height="50" relative="1" as="geometry">
            <mxPoint x="940.5" y="690" as="sourcePoint" />
            <mxPoint x="941" y="420" as="targetPoint" />
          </mxGeometry>
        </mxCell>
        <mxCell id="qljLDfotRCCgLCwqGysa-64" value="" style="endArrow=none;dashed=1;html=1;dashPattern=1 3;strokeWidth=2;rounded=0;fontSize=14;" parent="1" edge="1">
          <mxGeometry width="50" height="50" relative="1" as="geometry">
            <mxPoint x="241.5" y="689" as="sourcePoint" />
            <mxPoint x="242" y="420" as="targetPoint" />
          </mxGeometry>
        </mxCell>
        <mxCell id="fgNElKsQF5_CfpE9jVsH-3" value="" style="endArrow=none;dashed=1;html=1;dashPattern=1 3;strokeWidth=2;rounded=0;fontSize=14;" parent="1" target="qljLDfotRCCgLCwqGysa-67" edge="1">
          <mxGeometry width="50" height="50" relative="1" as="geometry">
            <mxPoint x="210" y="200" as="sourcePoint" />
            <mxPoint x="1140" y="200" as="targetPoint" />
          </mxGeometry>
        </mxCell>
        <mxCell id="qljLDfotRCCgLCwqGysa-67" value="&lt;font style=&quot;font-size: 19px;&quot;&gt;Transmitter (BS)&lt;/font&gt;" style="text;html=1;align=center;verticalAlign=middle;resizable=0;points=[];autosize=1;strokeColor=none;fillColor=none;fontSize=19;" parent="1" vertex="1">
          <mxGeometry x="611" y="180" width="160" height="40" as="geometry" />
        </mxCell>
        <mxCell id="fgNElKsQF5_CfpE9jVsH-4" value="" style="endArrow=none;dashed=1;html=1;dashPattern=1 3;strokeWidth=2;rounded=0;fontSize=14;" parent="1" target="qljLDfotRCCgLCwqGysa-66" edge="1">
          <mxGeometry width="50" height="50" relative="1" as="geometry">
            <mxPoint x="241" y="420" as="sourcePoint" />
            <mxPoint x="940" y="420" as="targetPoint" />
          </mxGeometry>
        </mxCell>
        <mxCell id="qljLDfotRCCgLCwqGysa-66" value="&lt;font style=&quot;font-size: 18px;&quot;&gt;Receiver&lt;/font&gt;" style="text;html=1;align=center;verticalAlign=middle;resizable=0;points=[];autosize=1;strokeColor=none;fillColor=none;fontSize=14;" parent="1" vertex="1">
          <mxGeometry x="562.75" y="400" width="90" height="40" as="geometry" />
        </mxCell>
      </root>
    </mxGraphModel>
  </diagram>
  <diagram name="Page-1" id="2qa2OHGGIFAGlsi7b3PU">
    <mxGraphModel dx="1174" dy="819" grid="1" gridSize="10" guides="1" tooltips="1" connect="1" arrows="1" fold="1" page="1" pageScale="1" pageWidth="850" pageHeight="1100" math="0" shadow="0">
      <root>
        <mxCell id="0" />
        <mxCell id="1" parent="0" />
        <mxCell id="y2HMgkPNah9fmsEaGJd7-1" value="" style="rounded=0;whiteSpace=wrap;html=1;fillColor=none;" parent="1" vertex="1">
          <mxGeometry x="200" y="160" width="40" height="40" as="geometry" />
        </mxCell>
        <mxCell id="y2HMgkPNah9fmsEaGJd7-2" value="" style="rounded=0;whiteSpace=wrap;html=1;fillColor=none;" parent="1" vertex="1">
          <mxGeometry x="240" y="160" width="40" height="40" as="geometry" />
        </mxCell>
        <mxCell id="y2HMgkPNah9fmsEaGJd7-3" value="" style="rounded=0;whiteSpace=wrap;html=1;fillColor=none;" parent="1" vertex="1">
          <mxGeometry x="280" y="160" width="40" height="40" as="geometry" />
        </mxCell>
        <mxCell id="y2HMgkPNah9fmsEaGJd7-4" value="" style="rounded=0;whiteSpace=wrap;html=1;fillColor=none;" parent="1" vertex="1">
          <mxGeometry x="320" y="160" width="40" height="40" as="geometry" />
        </mxCell>
        <mxCell id="y2HMgkPNah9fmsEaGJd7-5" value="" style="rounded=0;whiteSpace=wrap;html=1;fillColor=none;" parent="1" vertex="1">
          <mxGeometry x="360" y="160" width="40" height="40" as="geometry" />
        </mxCell>
        <mxCell id="y2HMgkPNah9fmsEaGJd7-6" value="" style="rounded=0;whiteSpace=wrap;html=1;fillColor=none;" parent="1" vertex="1">
          <mxGeometry x="400" y="160" width="40" height="40" as="geometry" />
        </mxCell>
        <mxCell id="y2HMgkPNah9fmsEaGJd7-7" value="" style="rounded=0;whiteSpace=wrap;html=1;fillColor=none;" parent="1" vertex="1">
          <mxGeometry x="440" y="160" width="40" height="40" as="geometry" />
        </mxCell>
        <mxCell id="y2HMgkPNah9fmsEaGJd7-8" value="" style="rounded=0;whiteSpace=wrap;html=1;fillColor=none;" parent="1" vertex="1">
          <mxGeometry x="480" y="160" width="40" height="40" as="geometry" />
        </mxCell>
        <mxCell id="y2HMgkPNah9fmsEaGJd7-9" value="" style="rounded=0;whiteSpace=wrap;html=1;fillColor=none;" parent="1" vertex="1">
          <mxGeometry x="520" y="160" width="40" height="40" as="geometry" />
        </mxCell>
        <mxCell id="y2HMgkPNah9fmsEaGJd7-10" value="" style="rounded=0;whiteSpace=wrap;html=1;fillColor=none;" parent="1" vertex="1">
          <mxGeometry x="560" y="160" width="40" height="40" as="geometry" />
        </mxCell>
        <mxCell id="y2HMgkPNah9fmsEaGJd7-11" value="" style="rounded=0;whiteSpace=wrap;html=1;fillColor=none;" parent="1" vertex="1">
          <mxGeometry x="600" y="160" width="40" height="40" as="geometry" />
        </mxCell>
        <mxCell id="y2HMgkPNah9fmsEaGJd7-12" value="" style="rounded=0;whiteSpace=wrap;html=1;fillColor=none;" parent="1" vertex="1">
          <mxGeometry x="640" y="160" width="40" height="40" as="geometry" />
        </mxCell>
        <mxCell id="y2HMgkPNah9fmsEaGJd7-13" value="" style="rounded=0;whiteSpace=wrap;html=1;fillColor=none;" parent="1" vertex="1">
          <mxGeometry x="200" y="200" width="40" height="40" as="geometry" />
        </mxCell>
        <mxCell id="y2HMgkPNah9fmsEaGJd7-14" value="" style="rounded=0;whiteSpace=wrap;html=1;fillColor=none;" parent="1" vertex="1">
          <mxGeometry x="240" y="200" width="40" height="40" as="geometry" />
        </mxCell>
        <mxCell id="y2HMgkPNah9fmsEaGJd7-15" value="" style="rounded=0;whiteSpace=wrap;html=1;fillColor=none;" parent="1" vertex="1">
          <mxGeometry x="280" y="200" width="40" height="40" as="geometry" />
        </mxCell>
        <mxCell id="y2HMgkPNah9fmsEaGJd7-16" value="" style="rounded=0;whiteSpace=wrap;html=1;fillColor=none;" parent="1" vertex="1">
          <mxGeometry x="320" y="200" width="40" height="40" as="geometry" />
        </mxCell>
        <mxCell id="y2HMgkPNah9fmsEaGJd7-17" value="" style="rounded=0;whiteSpace=wrap;html=1;fillColor=none;" parent="1" vertex="1">
          <mxGeometry x="360" y="200" width="40" height="40" as="geometry" />
        </mxCell>
        <mxCell id="y2HMgkPNah9fmsEaGJd7-18" value="" style="rounded=0;whiteSpace=wrap;html=1;fillColor=none;" parent="1" vertex="1">
          <mxGeometry x="400" y="200" width="40" height="40" as="geometry" />
        </mxCell>
        <mxCell id="y2HMgkPNah9fmsEaGJd7-19" value="" style="rounded=0;whiteSpace=wrap;html=1;fillColor=none;" parent="1" vertex="1">
          <mxGeometry x="440" y="200" width="40" height="40" as="geometry" />
        </mxCell>
        <mxCell id="y2HMgkPNah9fmsEaGJd7-20" value="" style="rounded=0;whiteSpace=wrap;html=1;fillColor=none;" parent="1" vertex="1">
          <mxGeometry x="480" y="200" width="40" height="40" as="geometry" />
        </mxCell>
        <mxCell id="y2HMgkPNah9fmsEaGJd7-21" value="" style="rounded=0;whiteSpace=wrap;html=1;fillColor=none;" parent="1" vertex="1">
          <mxGeometry x="520" y="200" width="40" height="40" as="geometry" />
        </mxCell>
        <mxCell id="y2HMgkPNah9fmsEaGJd7-22" value="" style="rounded=0;whiteSpace=wrap;html=1;fillColor=none;" parent="1" vertex="1">
          <mxGeometry x="560" y="200" width="40" height="40" as="geometry" />
        </mxCell>
        <mxCell id="y2HMgkPNah9fmsEaGJd7-23" value="" style="rounded=0;whiteSpace=wrap;html=1;fillColor=none;" parent="1" vertex="1">
          <mxGeometry x="600" y="200" width="40" height="40" as="geometry" />
        </mxCell>
        <mxCell id="y2HMgkPNah9fmsEaGJd7-24" value="" style="rounded=0;whiteSpace=wrap;html=1;fillColor=none;" parent="1" vertex="1">
          <mxGeometry x="640" y="200" width="40" height="40" as="geometry" />
        </mxCell>
        <mxCell id="y2HMgkPNah9fmsEaGJd7-25" value="" style="rounded=0;whiteSpace=wrap;html=1;fillColor=none;" parent="1" vertex="1">
          <mxGeometry x="200" y="240" width="40" height="40" as="geometry" />
        </mxCell>
        <mxCell id="y2HMgkPNah9fmsEaGJd7-26" value="" style="rounded=0;whiteSpace=wrap;html=1;fillColor=none;" parent="1" vertex="1">
          <mxGeometry x="240" y="240" width="40" height="40" as="geometry" />
        </mxCell>
        <mxCell id="y2HMgkPNah9fmsEaGJd7-27" value="" style="rounded=0;whiteSpace=wrap;html=1;" parent="1" vertex="1">
          <mxGeometry x="280" y="240" width="40" height="40" as="geometry" />
        </mxCell>
        <mxCell id="y2HMgkPNah9fmsEaGJd7-28" value="" style="rounded=0;whiteSpace=wrap;html=1;" parent="1" vertex="1">
          <mxGeometry x="320" y="240" width="40" height="40" as="geometry" />
        </mxCell>
        <mxCell id="y2HMgkPNah9fmsEaGJd7-29" value="" style="rounded=0;whiteSpace=wrap;html=1;" parent="1" vertex="1">
          <mxGeometry x="360" y="240" width="40" height="40" as="geometry" />
        </mxCell>
        <mxCell id="y2HMgkPNah9fmsEaGJd7-30" value="" style="rounded=0;whiteSpace=wrap;html=1;" parent="1" vertex="1">
          <mxGeometry x="400" y="240" width="40" height="40" as="geometry" />
        </mxCell>
        <mxCell id="y2HMgkPNah9fmsEaGJd7-31" value="" style="rounded=0;whiteSpace=wrap;html=1;" parent="1" vertex="1">
          <mxGeometry x="440" y="240" width="40" height="40" as="geometry" />
        </mxCell>
        <mxCell id="y2HMgkPNah9fmsEaGJd7-32" value="" style="rounded=0;whiteSpace=wrap;html=1;" parent="1" vertex="1">
          <mxGeometry x="480" y="240" width="40" height="40" as="geometry" />
        </mxCell>
        <mxCell id="y2HMgkPNah9fmsEaGJd7-33" value="" style="rounded=0;whiteSpace=wrap;html=1;" parent="1" vertex="1">
          <mxGeometry x="520" y="240" width="40" height="40" as="geometry" />
        </mxCell>
        <mxCell id="y2HMgkPNah9fmsEaGJd7-34" value="" style="rounded=0;whiteSpace=wrap;html=1;" parent="1" vertex="1">
          <mxGeometry x="560" y="240" width="40" height="40" as="geometry" />
        </mxCell>
        <mxCell id="y2HMgkPNah9fmsEaGJd7-35" value="" style="rounded=0;whiteSpace=wrap;html=1;fillColor=none;" parent="1" vertex="1">
          <mxGeometry x="600" y="240" width="40" height="40" as="geometry" />
        </mxCell>
        <mxCell id="y2HMgkPNah9fmsEaGJd7-36" value="" style="rounded=0;whiteSpace=wrap;html=1;fillColor=none;" parent="1" vertex="1">
          <mxGeometry x="640" y="240" width="40" height="40" as="geometry" />
        </mxCell>
        <mxCell id="y2HMgkPNah9fmsEaGJd7-37" value="" style="rounded=0;whiteSpace=wrap;html=1;fillColor=none;" parent="1" vertex="1">
          <mxGeometry x="200" y="280" width="40" height="40" as="geometry" />
        </mxCell>
        <mxCell id="y2HMgkPNah9fmsEaGJd7-38" value="" style="rounded=0;whiteSpace=wrap;html=1;fillColor=none;" parent="1" vertex="1">
          <mxGeometry x="240" y="280" width="40" height="40" as="geometry" />
        </mxCell>
        <mxCell id="y2HMgkPNah9fmsEaGJd7-39" value="" style="rounded=0;whiteSpace=wrap;html=1;" parent="1" vertex="1">
          <mxGeometry x="280" y="280" width="40" height="40" as="geometry" />
        </mxCell>
        <mxCell id="y2HMgkPNah9fmsEaGJd7-40" value="" style="rounded=0;whiteSpace=wrap;html=1;fillColor=#ffe6cc;strokeColor=#d79b00;" parent="1" vertex="1">
          <mxGeometry x="320" y="280" width="40" height="40" as="geometry" />
        </mxCell>
        <mxCell id="y2HMgkPNah9fmsEaGJd7-41" value="" style="rounded=0;whiteSpace=wrap;html=1;fillColor=#ffe6cc;strokeColor=#d79b00;" parent="1" vertex="1">
          <mxGeometry x="360" y="280" width="40" height="40" as="geometry" />
        </mxCell>
        <mxCell id="y2HMgkPNah9fmsEaGJd7-42" value="" style="rounded=0;whiteSpace=wrap;html=1;fillColor=#ffe6cc;strokeColor=#d79b00;" parent="1" vertex="1">
          <mxGeometry x="400" y="280" width="40" height="40" as="geometry" />
        </mxCell>
        <mxCell id="y2HMgkPNah9fmsEaGJd7-43" value="" style="rounded=0;whiteSpace=wrap;html=1;fillColor=#ffe6cc;strokeColor=#d79b00;" parent="1" vertex="1">
          <mxGeometry x="440" y="280" width="40" height="40" as="geometry" />
        </mxCell>
        <mxCell id="y2HMgkPNah9fmsEaGJd7-44" value="" style="rounded=0;whiteSpace=wrap;html=1;fillColor=#ffe6cc;strokeColor=#d79b00;" parent="1" vertex="1">
          <mxGeometry x="480" y="280" width="40" height="40" as="geometry" />
        </mxCell>
        <mxCell id="y2HMgkPNah9fmsEaGJd7-45" value="" style="rounded=0;whiteSpace=wrap;html=1;fillColor=#ffe6cc;strokeColor=#d79b00;" parent="1" vertex="1">
          <mxGeometry x="520" y="280" width="40" height="40" as="geometry" />
        </mxCell>
        <mxCell id="y2HMgkPNah9fmsEaGJd7-46" value="" style="rounded=0;whiteSpace=wrap;html=1;" parent="1" vertex="1">
          <mxGeometry x="560" y="280" width="40" height="40" as="geometry" />
        </mxCell>
        <mxCell id="y2HMgkPNah9fmsEaGJd7-47" value="" style="rounded=0;whiteSpace=wrap;html=1;fillColor=none;" parent="1" vertex="1">
          <mxGeometry x="600" y="280" width="40" height="40" as="geometry" />
        </mxCell>
        <mxCell id="y2HMgkPNah9fmsEaGJd7-48" value="" style="rounded=0;whiteSpace=wrap;html=1;fillColor=none;" parent="1" vertex="1">
          <mxGeometry x="640" y="280" width="40" height="40" as="geometry" />
        </mxCell>
        <mxCell id="y2HMgkPNah9fmsEaGJd7-49" value="" style="rounded=0;whiteSpace=wrap;html=1;fillColor=none;" parent="1" vertex="1">
          <mxGeometry x="200" y="320" width="40" height="40" as="geometry" />
        </mxCell>
        <mxCell id="y2HMgkPNah9fmsEaGJd7-50" value="" style="rounded=0;whiteSpace=wrap;html=1;fillColor=none;" parent="1" vertex="1">
          <mxGeometry x="240" y="320" width="40" height="40" as="geometry" />
        </mxCell>
        <mxCell id="y2HMgkPNah9fmsEaGJd7-51" value="" style="rounded=0;whiteSpace=wrap;html=1;" parent="1" vertex="1">
          <mxGeometry x="280" y="320" width="40" height="40" as="geometry" />
        </mxCell>
        <mxCell id="y2HMgkPNah9fmsEaGJd7-52" value="" style="rounded=0;whiteSpace=wrap;html=1;fillColor=#ffe6cc;strokeColor=#d79b00;" parent="1" vertex="1">
          <mxGeometry x="320" y="320" width="40" height="40" as="geometry" />
        </mxCell>
        <mxCell id="y2HMgkPNah9fmsEaGJd7-53" value="" style="rounded=0;whiteSpace=wrap;html=1;fillColor=#ffe6cc;strokeColor=#d79b00;" parent="1" vertex="1">
          <mxGeometry x="360" y="320" width="40" height="40" as="geometry" />
        </mxCell>
        <mxCell id="y2HMgkPNah9fmsEaGJd7-54" value="" style="rounded=0;whiteSpace=wrap;html=1;fillColor=#ffe6cc;strokeColor=#d79b00;" parent="1" vertex="1">
          <mxGeometry x="400" y="320" width="40" height="40" as="geometry" />
        </mxCell>
        <mxCell id="y2HMgkPNah9fmsEaGJd7-55" value="" style="rounded=0;whiteSpace=wrap;html=1;fillColor=#ffe6cc;strokeColor=#d79b00;" parent="1" vertex="1">
          <mxGeometry x="440" y="320" width="40" height="40" as="geometry" />
        </mxCell>
        <mxCell id="y2HMgkPNah9fmsEaGJd7-56" value="" style="rounded=0;whiteSpace=wrap;html=1;fillColor=#ffe6cc;strokeColor=#d79b00;" parent="1" vertex="1">
          <mxGeometry x="480" y="320" width="40" height="40" as="geometry" />
        </mxCell>
        <mxCell id="y2HMgkPNah9fmsEaGJd7-57" value="" style="rounded=0;whiteSpace=wrap;html=1;fillColor=#ffe6cc;strokeColor=#d79b00;" parent="1" vertex="1">
          <mxGeometry x="520" y="320" width="40" height="40" as="geometry" />
        </mxCell>
        <mxCell id="y2HMgkPNah9fmsEaGJd7-58" value="" style="rounded=0;whiteSpace=wrap;html=1;" parent="1" vertex="1">
          <mxGeometry x="560" y="320" width="40" height="40" as="geometry" />
        </mxCell>
        <mxCell id="y2HMgkPNah9fmsEaGJd7-59" value="" style="rounded=0;whiteSpace=wrap;html=1;fillColor=none;" parent="1" vertex="1">
          <mxGeometry x="600" y="320" width="40" height="40" as="geometry" />
        </mxCell>
        <mxCell id="y2HMgkPNah9fmsEaGJd7-60" value="" style="rounded=0;whiteSpace=wrap;html=1;fillColor=none;" parent="1" vertex="1">
          <mxGeometry x="640" y="320" width="40" height="40" as="geometry" />
        </mxCell>
        <mxCell id="y2HMgkPNah9fmsEaGJd7-61" value="" style="rounded=0;whiteSpace=wrap;html=1;fillColor=none;" parent="1" vertex="1">
          <mxGeometry x="200" y="360" width="40" height="40" as="geometry" />
        </mxCell>
        <mxCell id="y2HMgkPNah9fmsEaGJd7-62" value="" style="rounded=0;whiteSpace=wrap;html=1;fillColor=none;" parent="1" vertex="1">
          <mxGeometry x="240" y="360" width="40" height="40" as="geometry" />
        </mxCell>
        <mxCell id="y2HMgkPNah9fmsEaGJd7-63" value="" style="rounded=0;whiteSpace=wrap;html=1;" parent="1" vertex="1">
          <mxGeometry x="280" y="360" width="40" height="40" as="geometry" />
        </mxCell>
        <mxCell id="y2HMgkPNah9fmsEaGJd7-64" value="" style="rounded=0;whiteSpace=wrap;html=1;fillColor=#ffe6cc;strokeColor=#d79b00;" parent="1" vertex="1">
          <mxGeometry x="320" y="360" width="40" height="40" as="geometry" />
        </mxCell>
        <mxCell id="y2HMgkPNah9fmsEaGJd7-65" value="" style="rounded=0;whiteSpace=wrap;html=1;fillColor=#ffe6cc;strokeColor=#d79b00;" parent="1" vertex="1">
          <mxGeometry x="360" y="360" width="40" height="40" as="geometry" />
        </mxCell>
        <mxCell id="y2HMgkPNah9fmsEaGJd7-66" value="" style="rounded=0;whiteSpace=wrap;html=1;fillColor=#ffe6cc;strokeColor=#d79b00;" parent="1" vertex="1">
          <mxGeometry x="400" y="360" width="40" height="40" as="geometry" />
        </mxCell>
        <mxCell id="y2HMgkPNah9fmsEaGJd7-67" value="" style="rounded=0;whiteSpace=wrap;html=1;fillColor=#ffe6cc;strokeColor=#d79b00;" parent="1" vertex="1">
          <mxGeometry x="440" y="360" width="40" height="40" as="geometry" />
        </mxCell>
        <mxCell id="y2HMgkPNah9fmsEaGJd7-68" value="" style="rounded=0;whiteSpace=wrap;html=1;fillColor=#ffe6cc;strokeColor=#d79b00;" parent="1" vertex="1">
          <mxGeometry x="480" y="360" width="40" height="40" as="geometry" />
        </mxCell>
        <mxCell id="y2HMgkPNah9fmsEaGJd7-69" value="" style="rounded=0;whiteSpace=wrap;html=1;fillColor=#ffe6cc;strokeColor=#d79b00;" parent="1" vertex="1">
          <mxGeometry x="520" y="360" width="40" height="40" as="geometry" />
        </mxCell>
        <mxCell id="y2HMgkPNah9fmsEaGJd7-70" value="" style="rounded=0;whiteSpace=wrap;html=1;" parent="1" vertex="1">
          <mxGeometry x="560" y="360" width="40" height="40" as="geometry" />
        </mxCell>
        <mxCell id="y2HMgkPNah9fmsEaGJd7-71" value="" style="rounded=0;whiteSpace=wrap;html=1;fillColor=none;" parent="1" vertex="1">
          <mxGeometry x="600" y="360" width="40" height="40" as="geometry" />
        </mxCell>
        <mxCell id="y2HMgkPNah9fmsEaGJd7-72" value="" style="rounded=0;whiteSpace=wrap;html=1;fillColor=none;" parent="1" vertex="1">
          <mxGeometry x="640" y="360" width="40" height="40" as="geometry" />
        </mxCell>
        <mxCell id="y2HMgkPNah9fmsEaGJd7-73" value="" style="rounded=0;whiteSpace=wrap;html=1;fillColor=none;" parent="1" vertex="1">
          <mxGeometry x="200" y="400" width="40" height="40" as="geometry" />
        </mxCell>
        <mxCell id="y2HMgkPNah9fmsEaGJd7-74" value="" style="rounded=0;whiteSpace=wrap;html=1;fillColor=none;" parent="1" vertex="1">
          <mxGeometry x="240" y="400" width="40" height="40" as="geometry" />
        </mxCell>
        <mxCell id="y2HMgkPNah9fmsEaGJd7-75" value="" style="rounded=0;whiteSpace=wrap;html=1;" parent="1" vertex="1">
          <mxGeometry x="280" y="400" width="40" height="40" as="geometry" />
        </mxCell>
        <mxCell id="y2HMgkPNah9fmsEaGJd7-76" value="" style="rounded=0;whiteSpace=wrap;html=1;fillColor=#ffe6cc;strokeColor=#d79b00;" parent="1" vertex="1">
          <mxGeometry x="320" y="400" width="40" height="40" as="geometry" />
        </mxCell>
        <mxCell id="y2HMgkPNah9fmsEaGJd7-77" value="" style="rounded=0;whiteSpace=wrap;html=1;fillColor=#ffe6cc;strokeColor=#d79b00;" parent="1" vertex="1">
          <mxGeometry x="360" y="400" width="40" height="40" as="geometry" />
        </mxCell>
        <mxCell id="y2HMgkPNah9fmsEaGJd7-78" value="" style="rounded=0;whiteSpace=wrap;html=1;fillColor=#ffe6cc;strokeColor=#d79b00;" parent="1" vertex="1">
          <mxGeometry x="400" y="400" width="40" height="40" as="geometry" />
        </mxCell>
        <mxCell id="y2HMgkPNah9fmsEaGJd7-79" value="" style="rounded=0;whiteSpace=wrap;html=1;fillColor=#ffe6cc;strokeColor=#d79b00;" parent="1" vertex="1">
          <mxGeometry x="440" y="400" width="40" height="40" as="geometry" />
        </mxCell>
        <mxCell id="y2HMgkPNah9fmsEaGJd7-80" value="" style="rounded=0;whiteSpace=wrap;html=1;fillColor=#ffe6cc;strokeColor=#d79b00;" parent="1" vertex="1">
          <mxGeometry x="480" y="400" width="40" height="40" as="geometry" />
        </mxCell>
        <mxCell id="y2HMgkPNah9fmsEaGJd7-81" value="" style="rounded=0;whiteSpace=wrap;html=1;fillColor=#ffe6cc;strokeColor=#d79b00;" parent="1" vertex="1">
          <mxGeometry x="520" y="400" width="40" height="40" as="geometry" />
        </mxCell>
        <mxCell id="y2HMgkPNah9fmsEaGJd7-82" value="" style="rounded=0;whiteSpace=wrap;html=1;" parent="1" vertex="1">
          <mxGeometry x="560" y="400" width="40" height="40" as="geometry" />
        </mxCell>
        <mxCell id="y2HMgkPNah9fmsEaGJd7-83" value="" style="rounded=0;whiteSpace=wrap;html=1;fillColor=none;" parent="1" vertex="1">
          <mxGeometry x="600" y="400" width="40" height="40" as="geometry" />
        </mxCell>
        <mxCell id="y2HMgkPNah9fmsEaGJd7-84" value="" style="rounded=0;whiteSpace=wrap;html=1;fillColor=none;" parent="1" vertex="1">
          <mxGeometry x="640" y="400" width="40" height="40" as="geometry" />
        </mxCell>
        <mxCell id="y2HMgkPNah9fmsEaGJd7-85" value="" style="rounded=0;whiteSpace=wrap;html=1;fillColor=none;" parent="1" vertex="1">
          <mxGeometry x="200" y="440" width="40" height="40" as="geometry" />
        </mxCell>
        <mxCell id="y2HMgkPNah9fmsEaGJd7-86" value="" style="rounded=0;whiteSpace=wrap;html=1;fillColor=none;" parent="1" vertex="1">
          <mxGeometry x="240" y="440" width="40" height="40" as="geometry" />
        </mxCell>
        <mxCell id="y2HMgkPNah9fmsEaGJd7-87" value="" style="rounded=0;whiteSpace=wrap;html=1;" parent="1" vertex="1">
          <mxGeometry x="280" y="440" width="40" height="40" as="geometry" />
        </mxCell>
        <mxCell id="y2HMgkPNah9fmsEaGJd7-88" value="" style="rounded=0;whiteSpace=wrap;html=1;fillColor=#ffe6cc;strokeColor=#d79b00;" parent="1" vertex="1">
          <mxGeometry x="320" y="440" width="40" height="40" as="geometry" />
        </mxCell>
        <mxCell id="y2HMgkPNah9fmsEaGJd7-89" value="" style="rounded=0;whiteSpace=wrap;html=1;fillColor=#ffe6cc;strokeColor=#d79b00;" parent="1" vertex="1">
          <mxGeometry x="360" y="440" width="40" height="40" as="geometry" />
        </mxCell>
        <mxCell id="y2HMgkPNah9fmsEaGJd7-90" value="" style="rounded=0;whiteSpace=wrap;html=1;fillColor=#ffe6cc;strokeColor=#d79b00;" parent="1" vertex="1">
          <mxGeometry x="400" y="440" width="40" height="40" as="geometry" />
        </mxCell>
        <mxCell id="y2HMgkPNah9fmsEaGJd7-91" value="" style="rounded=0;whiteSpace=wrap;html=1;fillColor=#ffe6cc;strokeColor=#d79b00;" parent="1" vertex="1">
          <mxGeometry x="440" y="440" width="40" height="40" as="geometry" />
        </mxCell>
        <mxCell id="y2HMgkPNah9fmsEaGJd7-92" value="" style="rounded=0;whiteSpace=wrap;html=1;fillColor=#ffe6cc;strokeColor=#d79b00;" parent="1" vertex="1">
          <mxGeometry x="480" y="440" width="40" height="40" as="geometry" />
        </mxCell>
        <mxCell id="y2HMgkPNah9fmsEaGJd7-93" value="" style="rounded=0;whiteSpace=wrap;html=1;fillColor=#ffe6cc;strokeColor=#d79b00;" parent="1" vertex="1">
          <mxGeometry x="520" y="440" width="40" height="40" as="geometry" />
        </mxCell>
        <mxCell id="y2HMgkPNah9fmsEaGJd7-94" value="" style="rounded=0;whiteSpace=wrap;html=1;" parent="1" vertex="1">
          <mxGeometry x="560" y="440" width="40" height="40" as="geometry" />
        </mxCell>
        <mxCell id="y2HMgkPNah9fmsEaGJd7-95" value="" style="rounded=0;whiteSpace=wrap;html=1;fillColor=none;" parent="1" vertex="1">
          <mxGeometry x="600" y="440" width="40" height="40" as="geometry" />
        </mxCell>
        <mxCell id="y2HMgkPNah9fmsEaGJd7-96" value="" style="rounded=0;whiteSpace=wrap;html=1;fillColor=none;" parent="1" vertex="1">
          <mxGeometry x="640" y="440" width="40" height="40" as="geometry" />
        </mxCell>
        <mxCell id="y2HMgkPNah9fmsEaGJd7-97" value="" style="rounded=0;whiteSpace=wrap;html=1;fillColor=none;" parent="1" vertex="1">
          <mxGeometry x="200" y="480" width="40" height="40" as="geometry" />
        </mxCell>
        <mxCell id="y2HMgkPNah9fmsEaGJd7-98" value="" style="rounded=0;whiteSpace=wrap;html=1;fillColor=none;" parent="1" vertex="1">
          <mxGeometry x="240" y="480" width="40" height="40" as="geometry" />
        </mxCell>
        <mxCell id="y2HMgkPNah9fmsEaGJd7-99" value="" style="rounded=0;whiteSpace=wrap;html=1;" parent="1" vertex="1">
          <mxGeometry x="280" y="480" width="40" height="40" as="geometry" />
        </mxCell>
        <mxCell id="y2HMgkPNah9fmsEaGJd7-100" value="" style="rounded=0;whiteSpace=wrap;html=1;fillColor=#ffe6cc;strokeColor=#d79b00;" parent="1" vertex="1">
          <mxGeometry x="320" y="480" width="40" height="40" as="geometry" />
        </mxCell>
        <mxCell id="y2HMgkPNah9fmsEaGJd7-101" value="" style="rounded=0;whiteSpace=wrap;html=1;fillColor=#ffe6cc;strokeColor=#d79b00;" parent="1" vertex="1">
          <mxGeometry x="360" y="480" width="40" height="40" as="geometry" />
        </mxCell>
        <mxCell id="y2HMgkPNah9fmsEaGJd7-102" value="" style="rounded=0;whiteSpace=wrap;html=1;fillColor=#ffe6cc;strokeColor=#d79b00;" parent="1" vertex="1">
          <mxGeometry x="400" y="480" width="40" height="40" as="geometry" />
        </mxCell>
        <mxCell id="y2HMgkPNah9fmsEaGJd7-103" value="" style="rounded=0;whiteSpace=wrap;html=1;fillColor=#ffe6cc;strokeColor=#d79b00;" parent="1" vertex="1">
          <mxGeometry x="440" y="480" width="40" height="40" as="geometry" />
        </mxCell>
        <mxCell id="y2HMgkPNah9fmsEaGJd7-104" value="" style="rounded=0;whiteSpace=wrap;html=1;fillColor=#ffe6cc;strokeColor=#d79b00;" parent="1" vertex="1">
          <mxGeometry x="480" y="480" width="40" height="40" as="geometry" />
        </mxCell>
        <mxCell id="y2HMgkPNah9fmsEaGJd7-105" value="" style="rounded=0;whiteSpace=wrap;html=1;fillColor=#ffe6cc;strokeColor=#d79b00;" parent="1" vertex="1">
          <mxGeometry x="520" y="480" width="40" height="40" as="geometry" />
        </mxCell>
        <mxCell id="y2HMgkPNah9fmsEaGJd7-106" value="" style="rounded=0;whiteSpace=wrap;html=1;" parent="1" vertex="1">
          <mxGeometry x="560" y="480" width="40" height="40" as="geometry" />
        </mxCell>
        <mxCell id="y2HMgkPNah9fmsEaGJd7-107" value="" style="rounded=0;whiteSpace=wrap;html=1;fillColor=none;" parent="1" vertex="1">
          <mxGeometry x="600" y="480" width="40" height="40" as="geometry" />
        </mxCell>
        <mxCell id="y2HMgkPNah9fmsEaGJd7-108" value="" style="rounded=0;whiteSpace=wrap;html=1;fillColor=none;" parent="1" vertex="1">
          <mxGeometry x="640" y="480" width="40" height="40" as="geometry" />
        </mxCell>
        <mxCell id="y2HMgkPNah9fmsEaGJd7-109" value="" style="rounded=0;whiteSpace=wrap;html=1;fillColor=none;" parent="1" vertex="1">
          <mxGeometry x="200" y="520" width="40" height="40" as="geometry" />
        </mxCell>
        <mxCell id="y2HMgkPNah9fmsEaGJd7-110" value="" style="rounded=0;whiteSpace=wrap;html=1;fillColor=none;" parent="1" vertex="1">
          <mxGeometry x="240" y="520" width="40" height="40" as="geometry" />
        </mxCell>
        <mxCell id="y2HMgkPNah9fmsEaGJd7-111" value="" style="rounded=0;whiteSpace=wrap;html=1;fillColor=none;" parent="1" vertex="1">
          <mxGeometry x="280" y="520" width="40" height="40" as="geometry" />
        </mxCell>
        <mxCell id="y2HMgkPNah9fmsEaGJd7-112" value="" style="rounded=0;whiteSpace=wrap;html=1;fillColor=none;" parent="1" vertex="1">
          <mxGeometry x="320" y="520" width="40" height="40" as="geometry" />
        </mxCell>
        <mxCell id="y2HMgkPNah9fmsEaGJd7-113" value="" style="rounded=0;whiteSpace=wrap;html=1;fillColor=none;" parent="1" vertex="1">
          <mxGeometry x="360" y="520" width="40" height="40" as="geometry" />
        </mxCell>
        <mxCell id="y2HMgkPNah9fmsEaGJd7-114" value="" style="rounded=0;whiteSpace=wrap;html=1;fillColor=none;" parent="1" vertex="1">
          <mxGeometry x="400" y="520" width="40" height="40" as="geometry" />
        </mxCell>
        <mxCell id="y2HMgkPNah9fmsEaGJd7-115" value="" style="rounded=0;whiteSpace=wrap;html=1;fillColor=none;" parent="1" vertex="1">
          <mxGeometry x="440" y="520" width="40" height="40" as="geometry" />
        </mxCell>
        <mxCell id="y2HMgkPNah9fmsEaGJd7-116" value="" style="rounded=0;whiteSpace=wrap;html=1;fillColor=none;" parent="1" vertex="1">
          <mxGeometry x="480" y="520" width="40" height="40" as="geometry" />
        </mxCell>
        <mxCell id="y2HMgkPNah9fmsEaGJd7-117" value="" style="rounded=0;whiteSpace=wrap;html=1;fillColor=none;" parent="1" vertex="1">
          <mxGeometry x="520" y="520" width="40" height="40" as="geometry" />
        </mxCell>
        <mxCell id="y2HMgkPNah9fmsEaGJd7-118" value="" style="rounded=0;whiteSpace=wrap;html=1;fillColor=none;" parent="1" vertex="1">
          <mxGeometry x="560" y="520" width="40" height="40" as="geometry" />
        </mxCell>
        <mxCell id="y2HMgkPNah9fmsEaGJd7-119" value="" style="rounded=0;whiteSpace=wrap;html=1;fillColor=none;" parent="1" vertex="1">
          <mxGeometry x="600" y="520" width="40" height="40" as="geometry" />
        </mxCell>
        <mxCell id="y2HMgkPNah9fmsEaGJd7-120" value="" style="rounded=0;whiteSpace=wrap;html=1;fillColor=none;" parent="1" vertex="1">
          <mxGeometry x="640" y="520" width="40" height="40" as="geometry" />
        </mxCell>
        <mxCell id="y2HMgkPNah9fmsEaGJd7-121" value="" style="rounded=0;whiteSpace=wrap;html=1;fillColor=none;" parent="1" vertex="1">
          <mxGeometry x="200" y="560" width="40" height="40" as="geometry" />
        </mxCell>
        <mxCell id="y2HMgkPNah9fmsEaGJd7-122" value="" style="rounded=0;whiteSpace=wrap;html=1;fillColor=none;" parent="1" vertex="1">
          <mxGeometry x="240" y="560" width="40" height="40" as="geometry" />
        </mxCell>
        <mxCell id="y2HMgkPNah9fmsEaGJd7-123" value="" style="rounded=0;whiteSpace=wrap;html=1;fillColor=none;" parent="1" vertex="1">
          <mxGeometry x="280" y="560" width="40" height="40" as="geometry" />
        </mxCell>
        <mxCell id="y2HMgkPNah9fmsEaGJd7-124" value="" style="rounded=0;whiteSpace=wrap;html=1;fillColor=none;" parent="1" vertex="1">
          <mxGeometry x="320" y="560" width="40" height="40" as="geometry" />
        </mxCell>
        <mxCell id="y2HMgkPNah9fmsEaGJd7-125" value="" style="rounded=0;whiteSpace=wrap;html=1;fillColor=none;" parent="1" vertex="1">
          <mxGeometry x="360" y="560" width="40" height="40" as="geometry" />
        </mxCell>
        <mxCell id="y2HMgkPNah9fmsEaGJd7-126" value="" style="rounded=0;whiteSpace=wrap;html=1;fillColor=none;" parent="1" vertex="1">
          <mxGeometry x="400" y="560" width="40" height="40" as="geometry" />
        </mxCell>
        <mxCell id="y2HMgkPNah9fmsEaGJd7-127" value="" style="rounded=0;whiteSpace=wrap;html=1;fillColor=none;" parent="1" vertex="1">
          <mxGeometry x="440" y="560" width="40" height="40" as="geometry" />
        </mxCell>
        <mxCell id="y2HMgkPNah9fmsEaGJd7-128" value="" style="rounded=0;whiteSpace=wrap;html=1;fillColor=none;" parent="1" vertex="1">
          <mxGeometry x="480" y="560" width="40" height="40" as="geometry" />
        </mxCell>
        <mxCell id="y2HMgkPNah9fmsEaGJd7-129" value="" style="rounded=0;whiteSpace=wrap;html=1;fillColor=none;" parent="1" vertex="1">
          <mxGeometry x="520" y="560" width="40" height="40" as="geometry" />
        </mxCell>
        <mxCell id="y2HMgkPNah9fmsEaGJd7-130" value="" style="rounded=0;whiteSpace=wrap;html=1;fillColor=none;" parent="1" vertex="1">
          <mxGeometry x="560" y="560" width="40" height="40" as="geometry" />
        </mxCell>
        <mxCell id="y2HMgkPNah9fmsEaGJd7-131" value="" style="rounded=0;whiteSpace=wrap;html=1;fillColor=none;" parent="1" vertex="1">
          <mxGeometry x="600" y="560" width="40" height="40" as="geometry" />
        </mxCell>
        <mxCell id="y2HMgkPNah9fmsEaGJd7-132" value="" style="rounded=0;whiteSpace=wrap;html=1;fillColor=none;" parent="1" vertex="1">
          <mxGeometry x="640" y="560" width="40" height="40" as="geometry" />
        </mxCell>
        <mxCell id="y2HMgkPNah9fmsEaGJd7-133" value="" style="rounded=0;whiteSpace=wrap;html=1;fillColor=none;" parent="1" vertex="1">
          <mxGeometry x="200" y="600" width="40" height="40" as="geometry" />
        </mxCell>
        <mxCell id="y2HMgkPNah9fmsEaGJd7-134" value="" style="rounded=0;whiteSpace=wrap;html=1;fillColor=none;" parent="1" vertex="1">
          <mxGeometry x="240" y="600" width="40" height="40" as="geometry" />
        </mxCell>
        <mxCell id="y2HMgkPNah9fmsEaGJd7-135" value="" style="rounded=0;whiteSpace=wrap;html=1;fillColor=none;" parent="1" vertex="1">
          <mxGeometry x="280" y="600" width="40" height="40" as="geometry" />
        </mxCell>
        <mxCell id="y2HMgkPNah9fmsEaGJd7-136" value="" style="rounded=0;whiteSpace=wrap;html=1;fillColor=none;" parent="1" vertex="1">
          <mxGeometry x="320" y="600" width="40" height="40" as="geometry" />
        </mxCell>
        <mxCell id="y2HMgkPNah9fmsEaGJd7-137" value="" style="rounded=0;whiteSpace=wrap;html=1;fillColor=none;" parent="1" vertex="1">
          <mxGeometry x="360" y="600" width="40" height="40" as="geometry" />
        </mxCell>
        <mxCell id="y2HMgkPNah9fmsEaGJd7-138" value="" style="rounded=0;whiteSpace=wrap;html=1;fillColor=none;" parent="1" vertex="1">
          <mxGeometry x="400" y="600" width="40" height="40" as="geometry" />
        </mxCell>
        <mxCell id="y2HMgkPNah9fmsEaGJd7-139" value="" style="rounded=0;whiteSpace=wrap;html=1;fillColor=none;" parent="1" vertex="1">
          <mxGeometry x="440" y="600" width="40" height="40" as="geometry" />
        </mxCell>
        <mxCell id="y2HMgkPNah9fmsEaGJd7-140" value="" style="rounded=0;whiteSpace=wrap;html=1;fillColor=none;" parent="1" vertex="1">
          <mxGeometry x="480" y="600" width="40" height="40" as="geometry" />
        </mxCell>
        <mxCell id="y2HMgkPNah9fmsEaGJd7-141" value="" style="rounded=0;whiteSpace=wrap;html=1;fillColor=none;" parent="1" vertex="1">
          <mxGeometry x="520" y="600" width="40" height="40" as="geometry" />
        </mxCell>
        <mxCell id="y2HMgkPNah9fmsEaGJd7-142" value="" style="rounded=0;whiteSpace=wrap;html=1;fillColor=none;" parent="1" vertex="1">
          <mxGeometry x="560" y="600" width="40" height="40" as="geometry" />
        </mxCell>
        <mxCell id="y2HMgkPNah9fmsEaGJd7-143" value="" style="rounded=0;whiteSpace=wrap;html=1;fillColor=none;" parent="1" vertex="1">
          <mxGeometry x="600" y="600" width="40" height="40" as="geometry" />
        </mxCell>
        <mxCell id="y2HMgkPNah9fmsEaGJd7-144" value="" style="rounded=0;whiteSpace=wrap;html=1;fillColor=none;" parent="1" vertex="1">
          <mxGeometry x="640" y="600" width="40" height="40" as="geometry" />
        </mxCell>
        <mxCell id="y2HMgkPNah9fmsEaGJd7-148" value="" style="ellipse;whiteSpace=wrap;html=1;aspect=fixed;" parent="1" vertex="1">
          <mxGeometry x="430" y="390" width="20" height="20" as="geometry" />
        </mxCell>
        <mxCell id="1Yi3yHfaKZqvl3mutdzE-1" value="&lt;b style=&quot;font-size: 11px;&quot;&gt;&lt;font style=&quot;font-size: 11px;&quot;&gt;AP&lt;/font&gt;&lt;/b&gt;" style="text;html=1;strokeColor=none;fillColor=none;align=center;verticalAlign=middle;whiteSpace=wrap;rounded=0;fontSize=11;" parent="1" vertex="1">
          <mxGeometry x="410" y="385" width="60" height="30" as="geometry" />
        </mxCell>
      </root>
    </mxGraphModel>
  </diagram>
  <diagram name="Page-2" id="tkhttYnQ6EHuxoembukd">
    <mxGraphModel dx="2935" dy="2048" grid="0" gridSize="10" guides="1" tooltips="1" connect="1" arrows="1" fold="1" page="1" pageScale="1" pageWidth="850" pageHeight="1100" math="0" shadow="0">
      <root>
        <mxCell id="0" />
        <mxCell id="1" parent="0" />
        <mxCell id="YvuuAMUBq4PmZkiiDfQJ-4" value="Input Data" style="rounded=0;whiteSpace=wrap;html=1;fontStyle=0;fontSize=31;fontFamily=Times New Roman;strokeColor=default;container=0;strokeWidth=3;" parent="1" vertex="1">
          <mxGeometry x="131.62" y="469" width="157.38" height="140" as="geometry" />
        </mxCell>
        <mxCell id="YvuuAMUBq4PmZkiiDfQJ-6" value="Gradient Boosting Classifier (GBM)" style="rounded=0;whiteSpace=wrap;html=1;fontStyle=0;fontSize=31;fontFamily=Times New Roman;strokeColor=default;container=0;strokeWidth=3;" parent="1" vertex="1">
          <mxGeometry x="367" y="401" width="160" height="252.57" as="geometry" />
        </mxCell>
        <mxCell id="YvuuAMUBq4PmZkiiDfQJ-7" value="Hyperparameter Tuning (GridSearchCV)" style="rounded=0;whiteSpace=wrap;html=1;fontStyle=0;fontSize=31;fontFamily=Times New Roman;strokeColor=default;container=0;strokeWidth=3;" parent="1" vertex="1">
          <mxGeometry x="613" y="412" width="219" height="230.58" as="geometry" />
        </mxCell>
        <mxCell id="YvuuAMUBq4PmZkiiDfQJ-24" style="edgeStyle=orthogonalEdgeStyle;rounded=0;orthogonalLoop=1;jettySize=auto;html=1;exitX=1;exitY=0.5;exitDx=0;exitDy=0;strokeColor=default;strokeWidth=3;fontSize=31;fontFamily=Times New Roman;" parent="1" source="YvuuAMUBq4PmZkiiDfQJ-6" target="YvuuAMUBq4PmZkiiDfQJ-7" edge="1">
          <mxGeometry relative="1" as="geometry" />
        </mxCell>
        <mxCell id="YvuuAMUBq4PmZkiiDfQJ-8" value="Optimal GBM Model with Best Parameters" style="rounded=0;whiteSpace=wrap;html=1;fontStyle=0;fontSize=31;fontFamily=Times New Roman;strokeColor=default;container=0;strokeWidth=3;" parent="1" vertex="1">
          <mxGeometry x="890" y="416" width="175" height="222.57" as="geometry" />
        </mxCell>
        <mxCell id="YvuuAMUBq4PmZkiiDfQJ-25" style="edgeStyle=orthogonalEdgeStyle;rounded=0;orthogonalLoop=1;jettySize=auto;html=1;exitX=1;exitY=0.5;exitDx=0;exitDy=0;entryX=0;entryY=0.5;entryDx=0;entryDy=0;strokeColor=default;strokeWidth=3;fontSize=31;fontFamily=Times New Roman;" parent="1" source="YvuuAMUBq4PmZkiiDfQJ-7" target="YvuuAMUBq4PmZkiiDfQJ-8" edge="1">
          <mxGeometry relative="1" as="geometry" />
        </mxCell>
        <mxCell id="YvuuAMUBq4PmZkiiDfQJ-9" value="Combine Classifiers" style="rounded=0;whiteSpace=wrap;html=1;fontStyle=0;fontSize=31;fontFamily=Times New Roman;strokeColor=default;container=0;strokeWidth=3;" parent="1" vertex="1">
          <mxGeometry x="1785" y="440.57" width="135.23" height="174.57" as="geometry" />
        </mxCell>
        <mxCell id="YvuuAMUBq4PmZkiiDfQJ-10" value="Predict" style="rounded=0;whiteSpace=wrap;html=1;fontStyle=0;fontSize=31;fontFamily=Times New Roman;strokeColor=default;container=0;strokeWidth=3;" parent="1" vertex="1">
          <mxGeometry x="2182.67" y="449" width="135.23" height="156.57" as="geometry" />
        </mxCell>
        <mxCell id="YvuuAMUBq4PmZkiiDfQJ-11" value="Final GBM Model" style="rounded=0;whiteSpace=wrap;html=1;fontStyle=0;fontSize=31;fontFamily=Times New Roman;strokeColor=default;container=0;strokeWidth=3;" parent="1" vertex="1">
          <mxGeometry x="1990" y="430.43" width="135.23" height="178.57" as="geometry" />
        </mxCell>
        <mxCell id="YvuuAMUBq4PmZkiiDfQJ-12" value="Weak Learner 1" style="rounded=0;whiteSpace=wrap;html=1;fontStyle=0;fontSize=31;fontFamily=Times New Roman;strokeColor=default;container=0;strokeWidth=3;" parent="1" vertex="1">
          <mxGeometry x="1178.8725126116415" y="287.14285714285717" width="247.92911747350112" height="46.85714285714287" as="geometry" />
        </mxCell>
        <mxCell id="YvuuAMUBq4PmZkiiDfQJ-26" style="edgeStyle=orthogonalEdgeStyle;rounded=0;orthogonalLoop=1;jettySize=auto;html=1;exitX=1;exitY=0.5;exitDx=0;exitDy=0;entryX=0;entryY=0.5;entryDx=0;entryDy=0;strokeColor=default;strokeWidth=3;fontSize=31;fontFamily=Times New Roman;" parent="1" source="YvuuAMUBq4PmZkiiDfQJ-8" target="YvuuAMUBq4PmZkiiDfQJ-12" edge="1">
          <mxGeometry relative="1" as="geometry" />
        </mxCell>
        <mxCell id="YvuuAMUBq4PmZkiiDfQJ-31" style="edgeStyle=orthogonalEdgeStyle;rounded=0;orthogonalLoop=1;jettySize=auto;html=1;exitX=1;exitY=0.5;exitDx=0;exitDy=0;entryX=0;entryY=0.5;entryDx=0;entryDy=0;strokeColor=default;strokeWidth=3;fontSize=31;fontFamily=Times New Roman;" parent="1" source="YvuuAMUBq4PmZkiiDfQJ-12" target="YvuuAMUBq4PmZkiiDfQJ-13" edge="1">
          <mxGeometry relative="1" as="geometry" />
        </mxCell>
        <mxCell id="YvuuAMUBq4PmZkiiDfQJ-14" value="Weak Learner 2" style="rounded=0;whiteSpace=wrap;html=1;fontStyle=0;fontSize=31;fontFamily=Times New Roman;strokeColor=default;container=0;strokeWidth=3;" parent="1" vertex="1">
          <mxGeometry x="1178.8725126116415" y="392.5714285714286" width="247.92911747350112" height="46.85714285714287" as="geometry" />
        </mxCell>
        <mxCell id="YvuuAMUBq4PmZkiiDfQJ-27" style="edgeStyle=orthogonalEdgeStyle;rounded=0;orthogonalLoop=1;jettySize=auto;html=1;exitX=1;exitY=0.5;exitDx=0;exitDy=0;entryX=0;entryY=0.5;entryDx=0;entryDy=0;strokeColor=default;strokeWidth=3;fontSize=31;fontFamily=Times New Roman;" parent="1" source="YvuuAMUBq4PmZkiiDfQJ-8" target="YvuuAMUBq4PmZkiiDfQJ-14" edge="1">
          <mxGeometry relative="1" as="geometry" />
        </mxCell>
        <mxCell id="YvuuAMUBq4PmZkiiDfQJ-32" style="edgeStyle=orthogonalEdgeStyle;rounded=0;orthogonalLoop=1;jettySize=auto;html=1;exitX=1;exitY=0.5;exitDx=0;exitDy=0;entryX=0;entryY=0.5;entryDx=0;entryDy=0;strokeColor=default;strokeWidth=3;fontSize=31;fontFamily=Times New Roman;" parent="1" source="YvuuAMUBq4PmZkiiDfQJ-14" target="YvuuAMUBq4PmZkiiDfQJ-15" edge="1">
          <mxGeometry relative="1" as="geometry" />
        </mxCell>
        <mxCell id="YvuuAMUBq4PmZkiiDfQJ-16" value="Weak Learner 3" style="rounded=0;whiteSpace=wrap;html=1;fontStyle=0;fontSize=31;fontFamily=Times New Roman;strokeColor=default;container=0;strokeWidth=3;" parent="1" vertex="1">
          <mxGeometry x="1178.8725126116415" y="498" width="247.92911747350112" height="46.85714285714287" as="geometry" />
        </mxCell>
        <mxCell id="YvuuAMUBq4PmZkiiDfQJ-28" style="edgeStyle=orthogonalEdgeStyle;rounded=0;orthogonalLoop=1;jettySize=auto;html=1;exitX=1;exitY=0.5;exitDx=0;exitDy=0;entryX=0;entryY=0.5;entryDx=0;entryDy=0;strokeColor=default;strokeWidth=3;fontSize=31;fontFamily=Times New Roman;" parent="1" source="YvuuAMUBq4PmZkiiDfQJ-8" target="YvuuAMUBq4PmZkiiDfQJ-16" edge="1">
          <mxGeometry relative="1" as="geometry" />
        </mxCell>
        <mxCell id="YvuuAMUBq4PmZkiiDfQJ-33" style="edgeStyle=orthogonalEdgeStyle;rounded=0;orthogonalLoop=1;jettySize=auto;html=1;exitX=1;exitY=0.5;exitDx=0;exitDy=0;entryX=0;entryY=0.5;entryDx=0;entryDy=0;strokeColor=default;strokeWidth=3;fontSize=31;fontFamily=Times New Roman;" parent="1" source="YvuuAMUBq4PmZkiiDfQJ-16" target="YvuuAMUBq4PmZkiiDfQJ-17" edge="1">
          <mxGeometry relative="1" as="geometry" />
        </mxCell>
        <mxCell id="YvuuAMUBq4PmZkiiDfQJ-19" value="..." style="rounded=0;whiteSpace=wrap;html=1;fontStyle=1;fontSize=31;fontFamily=Times New Roman;verticalAlign=middle;strokeColor=default;container=0;strokeWidth=3;" parent="1" vertex="1">
          <mxGeometry x="1336.6455873675056" y="615.1428571428572" width="56.347526698522984" height="35.14285714285715" as="geometry" />
        </mxCell>
        <mxCell id="YvuuAMUBq4PmZkiiDfQJ-29" style="edgeStyle=orthogonalEdgeStyle;rounded=0;orthogonalLoop=1;jettySize=auto;html=1;exitX=1;exitY=0.5;exitDx=0;exitDy=0;entryX=0;entryY=0.5;entryDx=0;entryDy=0;strokeColor=default;strokeWidth=3;fontSize=31;fontFamily=Times New Roman;" parent="1" source="YvuuAMUBq4PmZkiiDfQJ-8" target="YvuuAMUBq4PmZkiiDfQJ-19" edge="1">
          <mxGeometry relative="1" as="geometry">
            <Array as="points">
              <mxPoint x="1122" y="527" />
              <mxPoint x="1122" y="633" />
            </Array>
          </mxGeometry>
        </mxCell>
        <mxCell id="YvuuAMUBq4PmZkiiDfQJ-20" value="Weak Learner N" style="rounded=0;whiteSpace=wrap;html=1;fontStyle=0;fontSize=31;fontFamily=Times New Roman;strokeColor=default;container=0;strokeWidth=3;" parent="1" vertex="1">
          <mxGeometry x="1178.8725126116415" y="708.857142857143" width="247.92911747350112" height="46.85714285714287" as="geometry" />
        </mxCell>
        <mxCell id="YvuuAMUBq4PmZkiiDfQJ-34" style="edgeStyle=orthogonalEdgeStyle;rounded=0;orthogonalLoop=1;jettySize=auto;html=1;exitX=1;exitY=0.5;exitDx=0;exitDy=0;entryX=0;entryY=0.5;entryDx=0;entryDy=0;strokeColor=default;strokeWidth=3;fontSize=31;fontFamily=Times New Roman;" parent="1" source="YvuuAMUBq4PmZkiiDfQJ-20" target="YvuuAMUBq4PmZkiiDfQJ-21" edge="1">
          <mxGeometry relative="1" as="geometry" />
        </mxCell>
        <mxCell id="fA-_RbMC5sK80mAtcY5c-1" style="edgeStyle=orthogonalEdgeStyle;rounded=0;orthogonalLoop=1;jettySize=auto;html=1;exitX=1;exitY=0.5;exitDx=0;exitDy=0;entryX=0;entryY=0.548;entryDx=0;entryDy=0;entryPerimeter=0;strokeWidth=3;fontFamily=Times New Roman;fontSize=31;" parent="1" source="YvuuAMUBq4PmZkiiDfQJ-4" target="YvuuAMUBq4PmZkiiDfQJ-6" edge="1">
          <mxGeometry relative="1" as="geometry" />
        </mxCell>
        <mxCell id="fA-_RbMC5sK80mAtcY5c-3" value="" style="group" parent="1" vertex="1" connectable="0">
          <mxGeometry x="1471.88" y="287.14" width="160.12" height="468.57" as="geometry" />
        </mxCell>
        <mxCell id="YvuuAMUBq4PmZkiiDfQJ-13" value="Classifier 1" style="rounded=0;whiteSpace=wrap;html=1;fontStyle=0;fontSize=31;fontFamily=Times New Roman;strokeColor=default;container=0;strokeWidth=3;" parent="fA-_RbMC5sK80mAtcY5c-3" vertex="1">
          <mxGeometry width="160.12000000000003" height="46.857" as="geometry" />
        </mxCell>
        <mxCell id="YvuuAMUBq4PmZkiiDfQJ-15" value="Classifier 2" style="rounded=0;whiteSpace=wrap;html=1;fontStyle=0;fontSize=31;fontFamily=Times New Roman;strokeColor=default;container=0;strokeWidth=3;" parent="fA-_RbMC5sK80mAtcY5c-3" vertex="1">
          <mxGeometry y="105.42825000000002" width="160.12000000000003" height="46.857" as="geometry" />
        </mxCell>
        <mxCell id="YvuuAMUBq4PmZkiiDfQJ-17" value="Classifier 3" style="rounded=0;whiteSpace=wrap;html=1;fontStyle=0;fontSize=31;fontFamily=Times New Roman;strokeColor=default;container=0;strokeWidth=3;" parent="fA-_RbMC5sK80mAtcY5c-3" vertex="1">
          <mxGeometry y="210.85649999999993" width="160.12000000000003" height="46.857" as="geometry" />
        </mxCell>
        <mxCell id="YvuuAMUBq4PmZkiiDfQJ-21" value="Classifier N" style="rounded=0;whiteSpace=wrap;html=1;fontStyle=0;fontSize=31;fontFamily=Times New Roman;strokeColor=default;container=0;strokeWidth=3;" parent="fA-_RbMC5sK80mAtcY5c-3" vertex="1">
          <mxGeometry y="421.7130000000001" width="160.12000000000003" height="46.857" as="geometry" />
        </mxCell>
        <mxCell id="fA-_RbMC5sK80mAtcY5c-4" style="edgeStyle=orthogonalEdgeStyle;rounded=0;orthogonalLoop=1;jettySize=auto;html=1;exitX=1;exitY=0.5;exitDx=0;exitDy=0;entryX=0;entryY=0.5;entryDx=0;entryDy=0;strokeWidth=3;" parent="1" source="YvuuAMUBq4PmZkiiDfQJ-13" target="YvuuAMUBq4PmZkiiDfQJ-9" edge="1">
          <mxGeometry relative="1" as="geometry" />
        </mxCell>
        <mxCell id="fA-_RbMC5sK80mAtcY5c-5" style="edgeStyle=orthogonalEdgeStyle;rounded=0;orthogonalLoop=1;jettySize=auto;html=1;exitX=1;exitY=0.5;exitDx=0;exitDy=0;entryX=0;entryY=0.5;entryDx=0;entryDy=0;strokeWidth=3;" parent="1" source="YvuuAMUBq4PmZkiiDfQJ-15" target="YvuuAMUBq4PmZkiiDfQJ-9" edge="1">
          <mxGeometry relative="1" as="geometry" />
        </mxCell>
        <mxCell id="fA-_RbMC5sK80mAtcY5c-6" style="edgeStyle=orthogonalEdgeStyle;rounded=0;orthogonalLoop=1;jettySize=auto;html=1;exitX=1;exitY=0.5;exitDx=0;exitDy=0;entryX=0;entryY=0.5;entryDx=0;entryDy=0;strokeWidth=3;" parent="1" source="YvuuAMUBq4PmZkiiDfQJ-17" target="YvuuAMUBq4PmZkiiDfQJ-9" edge="1">
          <mxGeometry relative="1" as="geometry">
            <Array as="points">
              <mxPoint x="1632" y="528" />
            </Array>
          </mxGeometry>
        </mxCell>
        <mxCell id="fA-_RbMC5sK80mAtcY5c-7" style="edgeStyle=orthogonalEdgeStyle;rounded=0;orthogonalLoop=1;jettySize=auto;html=1;exitX=1;exitY=0.5;exitDx=0;exitDy=0;entryX=0;entryY=0.5;entryDx=0;entryDy=0;strokeWidth=3;" parent="1" source="YvuuAMUBq4PmZkiiDfQJ-21" target="YvuuAMUBq4PmZkiiDfQJ-9" edge="1">
          <mxGeometry relative="1" as="geometry" />
        </mxCell>
        <mxCell id="fA-_RbMC5sK80mAtcY5c-8" style="edgeStyle=orthogonalEdgeStyle;rounded=0;orthogonalLoop=1;jettySize=auto;html=1;exitX=1;exitY=0.5;exitDx=0;exitDy=0;entryX=0;entryY=0.582;entryDx=0;entryDy=0;entryPerimeter=0;strokeWidth=3;" parent="1" source="YvuuAMUBq4PmZkiiDfQJ-8" target="YvuuAMUBq4PmZkiiDfQJ-20" edge="1">
          <mxGeometry relative="1" as="geometry" />
        </mxCell>
        <mxCell id="fA-_RbMC5sK80mAtcY5c-9" style="edgeStyle=orthogonalEdgeStyle;rounded=0;orthogonalLoop=1;jettySize=auto;html=1;exitX=1;exitY=0.5;exitDx=0;exitDy=0;entryX=0.01;entryY=0.548;entryDx=0;entryDy=0;entryPerimeter=0;strokeWidth=3;" parent="1" source="YvuuAMUBq4PmZkiiDfQJ-9" target="YvuuAMUBq4PmZkiiDfQJ-11" edge="1">
          <mxGeometry relative="1" as="geometry" />
        </mxCell>
        <mxCell id="fA-_RbMC5sK80mAtcY5c-10" style="edgeStyle=orthogonalEdgeStyle;rounded=0;orthogonalLoop=1;jettySize=auto;html=1;exitX=1;exitY=0.5;exitDx=0;exitDy=0;entryX=0.002;entryY=0.451;entryDx=0;entryDy=0;entryPerimeter=0;strokeWidth=3;" parent="1" source="YvuuAMUBq4PmZkiiDfQJ-11" target="YvuuAMUBq4PmZkiiDfQJ-10" edge="1">
          <mxGeometry relative="1" as="geometry" />
        </mxCell>
      </root>
    </mxGraphModel>
  </diagram>
  <diagram id="23Qd22iarM8e3pEZWhun" name="Page-4">
    <mxGraphModel dx="334" dy="558" grid="0" gridSize="10" guides="1" tooltips="1" connect="1" arrows="1" fold="1" page="1" pageScale="1" pageWidth="850" pageHeight="1100" math="0" shadow="0">
      <root>
        <mxCell id="0" />
        <mxCell id="1" parent="0" />
        <mxCell id="ecDL3nrw8RkGI3OVeYWg-64" style="edgeStyle=orthogonalEdgeStyle;rounded=0;orthogonalLoop=1;jettySize=auto;html=1;exitX=1;exitY=0.5;exitDx=0;exitDy=0;entryX=0;entryY=0.5;entryDx=0;entryDy=0;" parent="1" source="ecDL3nrw8RkGI3OVeYWg-1" target="ecDL3nrw8RkGI3OVeYWg-6" edge="1">
          <mxGeometry relative="1" as="geometry" />
        </mxCell>
        <mxCell id="ecDL3nrw8RkGI3OVeYWg-1" value="Get the Spatial Data of users and Transmit Power" style="rounded=0;whiteSpace=wrap;html=1;fillColor=none;rotation=0;" parent="1" vertex="1">
          <mxGeometry x="111" y="329" width="130" height="60" as="geometry" />
        </mxCell>
        <mxCell id="7wa4LaEITbRDMMCJnaYY-4" style="edgeStyle=orthogonalEdgeStyle;rounded=0;orthogonalLoop=1;jettySize=auto;html=1;exitX=1;exitY=0.5;exitDx=0;exitDy=0;entryX=0;entryY=0.5;entryDx=0;entryDy=0;" edge="1" parent="1" source="ecDL3nrw8RkGI3OVeYWg-2" target="ecDL3nrw8RkGI3OVeYWg-9">
          <mxGeometry relative="1" as="geometry">
            <Array as="points">
              <mxPoint x="423" y="507" />
              <mxPoint x="423" y="314" />
            </Array>
          </mxGeometry>
        </mxCell>
        <mxCell id="ecDL3nrw8RkGI3OVeYWg-2" value="Derive the Capacity, BER and Outage Probability NOMA and OMA channels" style="rounded=0;whiteSpace=wrap;html=1;fillColor=none;rotation=0;" parent="1" vertex="1">
          <mxGeometry x="191" y="477" width="130" height="60" as="geometry" />
        </mxCell>
        <mxCell id="7wa4LaEITbRDMMCJnaYY-3" style="edgeStyle=orthogonalEdgeStyle;rounded=0;orthogonalLoop=1;jettySize=auto;html=1;entryX=0.5;entryY=0;entryDx=0;entryDy=0;exitX=0.5;exitY=1;exitDx=0;exitDy=0;" edge="1" parent="1" source="ecDL3nrw8RkGI3OVeYWg-6" target="ecDL3nrw8RkGI3OVeYWg-2">
          <mxGeometry relative="1" as="geometry" />
        </mxCell>
        <mxCell id="ecDL3nrw8RkGI3OVeYWg-6" value="Network Simulation" style="rounded=0;whiteSpace=wrap;html=1;fillColor=none;rotation=0;" parent="1" vertex="1">
          <mxGeometry x="283" y="329" width="130" height="60" as="geometry" />
        </mxCell>
        <mxCell id="ecDL3nrw8RkGI3OVeYWg-58" style="edgeStyle=orthogonalEdgeStyle;rounded=0;orthogonalLoop=1;jettySize=auto;html=1;exitX=0.5;exitY=1;exitDx=0;exitDy=0;entryX=0.5;entryY=0;entryDx=0;entryDy=0;" parent="1" source="ecDL3nrw8RkGI3OVeYWg-9" target="ecDL3nrw8RkGI3OVeYWg-11" edge="1">
          <mxGeometry relative="1" as="geometry" />
        </mxCell>
        <mxCell id="ecDL3nrw8RkGI3OVeYWg-9" value="Normalization" style="rounded=0;whiteSpace=wrap;html=1;fillColor=none;rotation=0;" parent="1" vertex="1">
          <mxGeometry x="454" y="299" width="130" height="30" as="geometry" />
        </mxCell>
        <mxCell id="ecDL3nrw8RkGI3OVeYWg-59" style="edgeStyle=orthogonalEdgeStyle;rounded=0;orthogonalLoop=1;jettySize=auto;html=1;exitX=1;exitY=0.5;exitDx=0;exitDy=0;entryX=0;entryY=0.5;entryDx=0;entryDy=0;" parent="1" source="ecDL3nrw8RkGI3OVeYWg-11" target="ecDL3nrw8RkGI3OVeYWg-16" edge="1">
          <mxGeometry relative="1" as="geometry" />
        </mxCell>
        <mxCell id="ecDL3nrw8RkGI3OVeYWg-11" value="Score Calculation" style="rounded=0;whiteSpace=wrap;html=1;fillColor=none;rotation=0;" parent="1" vertex="1">
          <mxGeometry x="454" y="370" width="130" height="30" as="geometry" />
        </mxCell>
        <mxCell id="ecDL3nrw8RkGI3OVeYWg-62" style="edgeStyle=orthogonalEdgeStyle;rounded=0;orthogonalLoop=1;jettySize=auto;html=1;exitX=0.5;exitY=0;exitDx=0;exitDy=0;entryX=0.5;entryY=1;entryDx=0;entryDy=0;" parent="1" source="ecDL3nrw8RkGI3OVeYWg-13" target="ecDL3nrw8RkGI3OVeYWg-11" edge="1">
          <mxGeometry relative="1" as="geometry" />
        </mxCell>
        <mxCell id="ecDL3nrw8RkGI3OVeYWg-13" value="Use case scenario (w1, w2, w3)" style="ellipse;whiteSpace=wrap;html=1;fillColor=none;rounded=0;rotation=0;" parent="1" vertex="1">
          <mxGeometry x="464" y="477" width="110" height="52.5" as="geometry" />
        </mxCell>
        <mxCell id="ecDL3nrw8RkGI3OVeYWg-60" style="edgeStyle=orthogonalEdgeStyle;rounded=0;orthogonalLoop=1;jettySize=auto;html=1;exitX=0.5;exitY=0;exitDx=0;exitDy=0;entryX=0.5;entryY=1;entryDx=0;entryDy=0;" parent="1" source="ecDL3nrw8RkGI3OVeYWg-16" target="ecDL3nrw8RkGI3OVeYWg-21" edge="1">
          <mxGeometry relative="1" as="geometry" />
        </mxCell>
        <mxCell id="ecDL3nrw8RkGI3OVeYWg-74" value="YES" style="edgeLabel;html=1;align=center;verticalAlign=middle;resizable=0;points=[];" parent="ecDL3nrw8RkGI3OVeYWg-60" vertex="1" connectable="0">
          <mxGeometry x="-0.1714" y="-1" relative="1" as="geometry">
            <mxPoint as="offset" />
          </mxGeometry>
        </mxCell>
        <mxCell id="ecDL3nrw8RkGI3OVeYWg-61" style="edgeStyle=orthogonalEdgeStyle;rounded=0;orthogonalLoop=1;jettySize=auto;html=1;exitX=0.5;exitY=1;exitDx=0;exitDy=0;entryX=0.5;entryY=0;entryDx=0;entryDy=0;" parent="1" source="ecDL3nrw8RkGI3OVeYWg-16" target="ecDL3nrw8RkGI3OVeYWg-18" edge="1">
          <mxGeometry relative="1" as="geometry" />
        </mxCell>
        <mxCell id="ecDL3nrw8RkGI3OVeYWg-73" value="NO" style="edgeLabel;html=1;align=center;verticalAlign=middle;resizable=0;points=[];" parent="ecDL3nrw8RkGI3OVeYWg-61" vertex="1" connectable="0">
          <mxGeometry x="-0.3782" y="-1" relative="1" as="geometry">
            <mxPoint as="offset" />
          </mxGeometry>
        </mxCell>
        <mxCell id="ecDL3nrw8RkGI3OVeYWg-16" value="if &lt;br&gt;Score(NOMA) &lt;br&gt;&amp;gt; &lt;br&gt;Score (OMA)" style="rhombus;whiteSpace=wrap;html=1;fillColor=none;rounded=0;rotation=0;" parent="1" vertex="1">
          <mxGeometry x="633" y="312" width="170" height="96" as="geometry" />
        </mxCell>
        <mxCell id="ecDL3nrw8RkGI3OVeYWg-53" style="edgeStyle=orthogonalEdgeStyle;rounded=0;orthogonalLoop=1;jettySize=auto;html=1;exitX=0.5;exitY=1;exitDx=0;exitDy=0;entryX=0.5;entryY=0;entryDx=0;entryDy=0;" parent="1" source="ecDL3nrw8RkGI3OVeYWg-26" target="ecDL3nrw8RkGI3OVeYWg-1" edge="1">
          <mxGeometry relative="1" as="geometry" />
        </mxCell>
        <mxCell id="7wa4LaEITbRDMMCJnaYY-1" style="edgeStyle=orthogonalEdgeStyle;rounded=0;orthogonalLoop=1;jettySize=auto;html=1;entryX=0;entryY=0.5;entryDx=0;entryDy=0;" edge="1" parent="1" source="ecDL3nrw8RkGI3OVeYWg-26" target="ecDL3nrw8RkGI3OVeYWg-2">
          <mxGeometry relative="1" as="geometry">
            <Array as="points">
              <mxPoint x="91" y="257" />
              <mxPoint x="91" y="520" />
            </Array>
          </mxGeometry>
        </mxCell>
        <mxCell id="7wa4LaEITbRDMMCJnaYY-2" value="Channel State Information" style="edgeLabel;html=1;align=center;verticalAlign=middle;resizable=0;points=[];rotation=-90;" vertex="1" connectable="0" parent="7wa4LaEITbRDMMCJnaYY-1">
          <mxGeometry x="0.0233" y="-1" relative="1" as="geometry">
            <mxPoint x="1" y="-53" as="offset" />
          </mxGeometry>
        </mxCell>
        <mxCell id="ecDL3nrw8RkGI3OVeYWg-26" value="System Model" style="ellipse;whiteSpace=wrap;html=1;fillColor=none;rounded=0;rotation=0;" parent="1" vertex="1">
          <mxGeometry x="123.5" y="242" width="105" height="30" as="geometry" />
        </mxCell>
        <mxCell id="ecDL3nrw8RkGI3OVeYWg-18" value="Switch to OMA" style="whiteSpace=wrap;html=1;fillColor=none;rounded=0;rotation=0;" parent="1" vertex="1">
          <mxGeometry x="658" y="469.5" width="120" height="60" as="geometry" />
        </mxCell>
        <mxCell id="ecDL3nrw8RkGI3OVeYWg-21" value="Switch to NOMA" style="whiteSpace=wrap;html=1;fillColor=none;rounded=0;rotation=0;" parent="1" vertex="1">
          <mxGeometry x="658" y="202" width="120" height="60" as="geometry" />
        </mxCell>
      </root>
    </mxGraphModel>
  </diagram>
</mxfile>
